HIERARCHY
ROOT hip
{
  OFFSET 0 0 0
  CHANNELS 6 Xposition Yposition Zposition Zrotation Yrotation Xrotation
  JOINT abdomen
  {
    OFFSET 0 20.6881 -0.73152
    CHANNELS 3 Zrotation Xrotation Yrotation
    JOINT chest
    {
      OFFSET 0 11.7043 -0.48768
      CHANNELS 3 Zrotation Xrotation Yrotation
      JOINT neck
      {
        OFFSET 0 22.1894 -2.19456
        CHANNELS 3 Zrotation Xrotation Yrotation
        JOINT head
        {
          OFFSET -0.24384 7.07133 1.2192
          CHANNELS 3 Zrotation Xrotation Yrotation
          JOINT leftEye
          {
            OFFSET 4.14528 8.04674 8.04672
            CHANNELS 3 Zrotation Xrotation Yrotation
            End Site
            {
              OFFSET 1 0 0
            }
          }
          JOINT rightEye
          {
            OFFSET -3.6576 8.04674 8.04672
            CHANNELS 3 Zrotation Xrotation Yrotation
            End Site
            {
              OFFSET 1 0 0
            }
          }
        }
      }
      JOINT rCollar
      {
        OFFSET -2.68224 19.2634 -4.8768
        CHANNELS 3 Zrotation Xrotation Yrotation
        JOINT rShldr
        {
          OFFSET -8.77824 -1.95073 1.46304
          CHANNELS 3 Zrotation Xrotation Yrotation
          JOINT rForeArm
          {
            OFFSET -28.1742 -1.7115 0.48768
            CHANNELS 3 Zrotation Xrotation Yrotation
            JOINT rHand
            {
              OFFSET -22.5879 0.773209 7.07136
              CHANNELS 3 Zrotation Xrotation Yrotation
              JOINT rThumb1
              {
                OFFSET -1.2192 -0.487915 3.41376
                CHANNELS 3 Zrotation Xrotation Yrotation
                JOINT rThumb2
                {
                  OFFSET -3.37035 -0.52449 3.41376
                  CHANNELS 3 Zrotation Xrotation Yrotation
                  End Site
                  {
                    OFFSET -1.78271 -1.18214 1.43049
                  }
                }
              }
              JOINT rIndex1
              {
                OFFSET -7.75947 0.938293 5.60832
                CHANNELS 3 Zrotation Xrotation Yrotation
                JOINT rIndex2
                {
                  OFFSET -2.54057 -0.884171 1.56538
                  CHANNELS 3 Zrotation Xrotation Yrotation
                  End Site
                  {
                    OFFSET -1.62519 -0.234802 1.16502
                  }
                }
              }
              JOINT rMid1
              {
                OFFSET -8.24714 1.18213 3.41376
                CHANNELS 3 Zrotation Xrotation Yrotation
                JOINT rMid2
                {
                  OFFSET -3.10165 -0.590103 1.0647
                  CHANNELS 3 Zrotation Xrotation Yrotation
                  End Site
                  {
                    OFFSET -2.48547 -0.328903 0.83742
                  }
                }
              }
              JOINT rRing1
              {
                OFFSET -8.82822 0.546677 1.51678
                CHANNELS 3 Zrotation Xrotation Yrotation
                JOINT rRing2
                {
                  OFFSET -2.60934 -0.819778 -0.0198488
                  CHANNELS 3 Zrotation Xrotation Yrotation
                  End Site
                  {
                    OFFSET -2.33842 -0.294052 0.168128
                  }
                }
              }
              JOINT rPinky1
              {
                OFFSET -8.27202 -0.0477905 -0.4584
                CHANNELS 3 Zrotation Xrotation Yrotation
                JOINT rPinky2
                {
                  OFFSET -1.82734 -0.647385 -0.700984
                  CHANNELS 3 Zrotation Xrotation Yrotation
                  End Site
                  {
                    OFFSET -1.69225 -0.51767 -0.607171
                  }
                }
              }
            }
          }
        }
      }
      JOINT lCollar
      {
        OFFSET 2.68224 19.2634 -4.8768
        CHANNELS 3 Zrotation Xrotation Yrotation
        JOINT lShldr
        {
          OFFSET 8.77824 -1.95073 1.46304
          CHANNELS 3 Zrotation Xrotation Yrotation
          JOINT lForeArm
          {
            OFFSET 28.1742 -1.7115 0.48768
            CHANNELS 3 Zrotation Xrotation Yrotation
            JOINT lHand
            {
              OFFSET 22.5879 0.773209 7.07136
              CHANNELS 3 Zrotation Xrotation Yrotation
              JOINT lThumb1
              {
                OFFSET 1.2192 -0.487915 3.41376
                CHANNELS 3 Zrotation Xrotation Yrotation
                JOINT lThumb2
                {
                  OFFSET 3.37035 -0.52449 3.41376
                  CHANNELS 3 Zrotation Xrotation Yrotation
                  End Site
                  {
                    OFFSET 1.78271 -1.18214 1.43049
                  }
                }
              }
              JOINT lIndex1
              {
                OFFSET 7.75947 0.938293 5.60832
                CHANNELS 3 Zrotation Xrotation Yrotation
                JOINT lIndex2
                {
                  OFFSET 2.54057 -0.884171 1.56538
                  CHANNELS 3 Zrotation Xrotation Yrotation
                  End Site
                  {
                    OFFSET 1.62519 -0.234802 1.16502
                  }
                }
              }
              JOINT lMid1
              {
                OFFSET 8.24714 1.18213 3.41376
                CHANNELS 3 Zrotation Xrotation Yrotation
                JOINT lMid2
                {
                  OFFSET 3.10165 -0.590103 1.0647
                  CHANNELS 3 Zrotation Xrotation Yrotation
                  End Site
                  {
                    OFFSET 2.48547 -0.328903 0.83742
                  }
                }
              }
              JOINT lRing1
              {
                OFFSET 8.82822 0.546677 1.51678
                CHANNELS 3 Zrotation Xrotation Yrotation
                JOINT lRing2
                {
                  OFFSET 2.60934 -0.819778 -0.0198488
                  CHANNELS 3 Zrotation Xrotation Yrotation
                  End Site
                  {
                    OFFSET 2.33842 -0.294052 0.168128
                  }
                }
              }
              JOINT lPinky1
              {
                OFFSET 8.27202 -0.0477905 -0.4584
                CHANNELS 3 Zrotation Xrotation Yrotation
                JOINT lPinky2
                {
                  OFFSET 1.82734 -0.647385 -0.700984
                  CHANNELS 3 Zrotation Xrotation Yrotation
                  End Site
                  {
                    OFFSET 1.69225 -0.51767 -0.607171
                  }
                }
              }
            }
          }
        }
      }
    }
  }
  JOINT rButtock
  {
    OFFSET -8.77824 4.35084 1.2192
    CHANNELS 3 Zrotation Xrotation Yrotation
    JOINT rThigh
    {
      OFFSET 0 -1.70687 -2.19456
      CHANNELS 3 Zrotation Xrotation Yrotation
      JOINT rShin
      {
        OFFSET 0 -36.8199 0.73152
        CHANNELS 3 Zrotation Xrotation Yrotation
        JOINT rFoot
        {
          OFFSET 0.73152 -45.1104 -5.12064
          CHANNELS 3 Zrotation Xrotation Yrotation
          End Site
          {
            OFFSET -1.1221 -3.69964 12.103
          }
        }
      }
    }
  }
  JOINT lButtock
  {
    OFFSET 8.77824 4.35084 1.2192
    CHANNELS 3 Zrotation Xrotation Yrotation
    JOINT lThigh
    {
      OFFSET 0 -1.70687 -2.19456
      CHANNELS 3 Zrotation Xrotation Yrotation
      JOINT lShin
      {
        OFFSET 0 -36.8199 0.73152
        CHANNELS 3 Zrotation Xrotation Yrotation
        JOINT lFoot
        {
          OFFSET -0.73152 -45.1104 -5.12064
          CHANNELS 3 Zrotation Xrotation Yrotation
          End Site
          {
            OFFSET 1.1221 -3.69964 12.103
          }
        }
      }
    }
  }
}
MOTION
Frames:	8
Frame Time:	0.00833333
0.0 0.0 0.0 0.0 0.0 0.0 0.0 0.0 0.0 0.0 0.0 0.0 0.0 0.0 0.0 0.0 0.0 0.0 0.0 0.0 0.0 0.0 0.0 0.0 0.0 0.0 0.0 0.0 0.0 0.0 0.0 0.0 0.0 0.0 0.0 0.0 0.0 0.0 0.0 0.0 0.0 0.0 0.0 0.0 0.0 0.0 0.0 0.0 0.0 0.0 0.0 0.0 0.0 0.0 0.0 0.0 0.0 0.0 0.0 0.0 0.0 0.0 0.0 0.0 0.0 0.0 0.0 0.0 0.0 0.0 0.0 0.0 0.0 0.0 0.0 0.0 0.0 0.0 0.0 0.0 0.0 0.0 0.0 0.0 0.0 0.0 0.0 0.0 0.0 0.0 0.0 0.0 0.0 0.0 0.0 0.0 0.0 0.0 0.0 0.0 0.0 0.0 0.0 0.0 0.0 0.0 0.0 0.0 0.0 0.0 0.0 0.0 0.0 0.0 0.0 0.0 0.0 0.0 0.0 0.0 0.0 0.0 0.0 0.0 0.0 0.0 0.0 0.0 0.0 0.0 0.0 0.0
-54.098400000000005 84.1846 14.1572 -17.090762 83.550473 -6.521548 1.871509 -9.564611 -180.0 1.44737 -4.816343 -176.784912 -7.958079 14.718863 -101.969078 2.173167 10.574567 102.017234 0.001636 0.0 0.002339 -0.002482 0.0 -0.004224 3.125622 -25.073004 -4.934876 -152.632421 -12.639001 -171.672501 2.17454 -25.084811 -64.154192 165.982052 -32.621572 140.77582 -4.0349 3.931433 0.756086 -29.955243 22.515396 28.476433 -4.707964 7.223666 2.854721 -86.92989 47.252629 67.420629 -167.29876 -27.767537 145.259684 -166.67805 -14.830602 143.740765 -73.164046 -72.142546 -90.198092 -58.378982 -82.264349 -84.287521 0.099594 0.257784 0.093488 -159.040995 54.011228 -150.019662 0.27295 1.606834 -0.360867 61.880875 87.297689 -86.536072 -18.778766 62.27991 78.267916 -172.15086 -18.911538 -143.188639 14.73552 13.585595 -3.967019 -27.39483 -31.396807 6.289316 2.686434 4.226646 -1.584078 151.545607 1.394826 -109.050313 160.672945 -6.668116 -143.244318 -1.822507 3.997144 -0.941308 145.121263 1.974691 179.748351 -8.952735 -11.257679 10.52727 -12.987845 44.344415 -10.761465 3.617678 -12.864743 4.950955 -0.003684 -0.000461 -0.001842 1.320429 -10.333893 -172.677921 4.125376 -15.712757 84.250545 155.176422 -19.695411 -84.920673 0.001229 -0.000299 -0.000615 0.540366 -5.431036 16.21793 -4.772488 6.295673 -82.651451 76.784683 60.058911 -5.214994
-54.0882 84.2182 14.1695 -17.94672 83.889475 -7.127971 3.706775 -14.587453 180.0 3.202414 -4.663458 -173.250742 8.533149 17.964233 140.913297 4.363607 -0.41897 -146.308681 0.002518 -0.0 -0.001574 0.002518 -0.0 -0.001574 -143.299151 38.837354 147.737141 -23.98776 3.678331 47.492298 10.205838 4.134765 -95.853697 175.398037 -12.632998 143.584218 -0.474512 0.468006 0.075299 10.881985 -15.462678 -8.104812 -138.763269 4.487825 115.032374 -172.847378 -32.721163 117.402985 -160.097192 -4.901519 142.968205 3.16713 0.180331 0.386385 -145.115152 -0.355424 -179.014434 12.11903 48.568025 -3.347234 -28.146637 -39.986464 -27.158967 -159.278618 55.74477 -149.488656 155.417603 -2.951519 -161.718203 49.626859 43.834554 -29.579481 -146.35857 65.367489 82.780687 14.708485 27.691769 -1.871984 7.758384 7.439154 -1.682093 -0.08863 1.104247 -4.862543 -1.08527 -1.784169 0.602686 -4.760505 9.740505 -1.441236 160.574035 -6.359519 -143.197084 -86.521667 -77.968384 -57.795714 145.118136 0.310228 179.225479 -2.633257 -43.839001 17.91062 150.577832 31.033981 146.363469 148.694691 14.00811 142.280217 0.000628 -0.000988 -0.000807 2.521853 -12.321927 -54.796096 -6.51874 8.407203 98.064905 70.574042 -65.504357 -20.957258 0.006236 0.000691 0.006236 1.454796 -10.775178 156.6099 -0.502386 -10.784694 -108.545772 87.254052 -55.197339 -18.593187
-54.0707 84.2485 14.1766 -18.849611 84.21815 -7.769927 5.731656 -19.029263 -180.0 4.661247 -4.494793 -170.178236 10.40229 12.675794 102.634063 17.521479 -2.310138 -109.763545 0.005007 0.0 0.000396 -6.1e-05 0.0 -0.002245 4.238633 -44.742752 -8.648511 -97.186842 -19.315531 -127.75223 -172.0471 -4.818884 -96.009609 -6.769324 5.564852 -1.623506 175.879759 -21.25735 88.49305 -77.44041 11.701054 23.456144 -152.812857 -19.8735 121.571751 -106.108191 51.854731 85.823577 23.90222 -61.334118 1.398323 -5.168923 21.272526 4.523514 -0.000739 -0.060778 -0.019548 -156.524144 -27.666079 175.091628 -146.205933 15.405622 -142.731367 73.205997 84.124093 -35.14957 85.537229 68.181452 -88.688867 119.044477 8.353461 -112.18706 178.773081 31.202052 92.981459 9.059544 5.307286 1.88026 -51.060093 -41.203651 -12.857008 103.408634 35.08462 -76.760631 46.209117 39.652373 -36.318582 -6.73426 0.011019 2.548919 -68.985284 -80.153516 -40.578623 6.261332 23.466206 -5.30189 -0.004619 1.769548 -0.555676 156.602538 -24.065112 -174.66934 24.987156 -37.660217 24.059137 4.6597 -17.955618 7.213643 179.998705 75.749543 0.000886 -175.268013 58.319707 -157.811812 -11.910774 -12.172587 -144.268279 -83.272087 56.148579 4.038766 179.999613 75.75138 0.000265 -173.405886 64.140923 -5.881735 5.426462 13.661824 79.19517 2.783419 -45.256077 -80.87299
-54.0285 84.2696 14.1987 -19.967844 84.497071 -8.7663 8.195514 -21.983031 -158.956031 4.268128 -6.394735 170.796056 -10.053733 11.057419 -67.189734 -18.557522 25.900411 71.44741 -0.002039 -0.0 0.003654 0.000872 -0.0 -0.001274 -153.15652 9.522903 158.797311 -127.666194 52.584845 57.1495 -153.796829 58.054702 -103.682868 -5.264995 -3.34407 -2.492546 -169.319358 -7.000875 89.922606 -12.54969 -45.101242 5.994317 -140.684026 1.506175 116.184023 -63.530141 56.8138 45.596978 -160.673284 -6.667633 143.245899 -42.494696 58.274673 36.596317 -0.000438 -0.060728 -0.019878 -23.384561 72.954928 36.418363 -25.535935 -38.087772 -24.598749 -80.097302 -54.186634 -80.419187 157.064922 -15.190208 -164.175093 -125.245537 2.470571 -177.444831 -160.073351 -6.783413 -39.765852 166.785193 21.906778 -138.009293 -114.538292 -50.245455 -55.722496 165.472445 -21.460469 -121.454644 50.386601 40.825996 -40.024976 -56.46226 -54.87712 -15.225369 89.834519 60.702238 -81.263228 139.169609 43.271503 -127.299181 72.756397 -72.144355 89.771688 71.870618 83.301198 -89.656637 149.471951 26.863924 145.480886 162.633306 55.809284 146.727188 -0.0 0.00011 0.001093 1.944534 -17.563043 28.218131 3.60471 14.325314 -54.596357 58.869685 1.931967 9.513381 -0.002203 -0.001585 -0.003305 2.550142 -14.411095 81.69205 10.385575 0.636973 -78.462678 42.250632 -3.603494 -1.12467
-54.000400000000006 84.2817 14.260100000000001 -21.418286 84.759166 -10.240074 7.600672 -18.701206 2.751401 -4.903175 0.893656 7.793619 -8.309215 19.04557 -112.812613 -23.753725 6.412912 114.363523 0.005405 0.0 0.001576 -8.3e-05 0.0 -0.001408 0.061373 -0.367336 -0.082466 -76.282901 -9.706129 -167.871783 32.64562 9.494724 -144.040417 -169.072891 22.35346 139.194114 66.25773 -46.842848 22.117045 -47.050077 28.535323 12.901118 -46.208357 39.653113 36.31811 12.992749 -9.737683 -3.379065 -36.036334 51.723451 29.831256 -174.965748 -39.038982 143.266366 -0.015239 -1.32337 -0.414442 7.131163 29.095683 4.539636 -75.779675 -51.667517 -74.249249 4.626115 3.276897 0.063006 155.50489 -3.514824 -161.83744 76.402302 30.180371 -13.710758 177.390957 -2.720521 79.902951 10.152967 0.750276 2.482961 -51.060137 -41.204137 -12.855765 146.95471 -76.938153 -157.300882 2.685216 4.227254 -1.582619 86.729976 47.219809 -67.557292 160.392831 -5.805835 -143.112256 88.643944 63.698141 -80.365078 0.000105 -0.018607 0.005198 -6.914867 29.712266 -4.675598 150.033181 28.967178 145.933063 -16.36094 43.15762 -6.057485 0.005035 -0.000245 0.002517 2.589797 -18.172361 8.25204 8.989139 22.605243 119.826954 63.711535 56.681242 -161.985607 0.005406 -0.000385 0.005406 2.926372 -14.997341 71.630957 18.996131 11.951449 148.869692 114.057455 -9.183642 179.767244
-53.97070000000001 84.2903 14.3186 -22.721205 84.992978 -11.612679 5.319064 -22.685068 129.828486 5.744743 -2.172652 -121.800735 -7.860282 19.266046 -112.641324 -20.301841 5.5282 113.386953 -0.003568 0.0 -0.000415 0.001391 0.0 0.002419 -9.652346 34.835943 11.200203 100.954118 -7.682649 24.110294 -179.283733 -42.288574 42.74635 -178.895118 -6.851217 143.21647 1.589715 -1.576065 -0.22284 -37.451892 26.693578 32.783434 24.077548 -42.305978 -5.557852 11.180544 6.931556 -1.416238 -36.038227 51.72244 29.83286 -42.041455 58.504859 36.269274 -145.099739 -1.522165 -178.650115 12.142256 51.118395 -2.968386 32.005772 83.321295 6.239099 15.094694 44.076243 7.380214 158.46761 -30.055508 -166.92015 -121.113435 3.090935 165.031486 -177.13204 -19.589231 -41.088065 173.02085 3.499843 -141.840896 -114.539043 -50.246023 -55.7221 14.214091 -65.79647 34.156887 138.494014 4.896786 -114.865243 157.369182 -2.577249 -118.231349 8.415864 20.8806 -5.644981 172.004928 -31.357841 -144.089463 -0.001412 -0.018219 0.00776 154.875721 5.937414 -171.067457 -12.990731 44.344055 -10.759544 -36.765335 80.45277 1.165745 -0.000327 0.00011 0.000421 3.233457 -17.871258 -18.407562 -0.75094 19.644776 106.164214 -15.782826 33.151463 -82.761577 -0.000387 -0.000806 0.000497 5.208292 -15.593736 -106.510084 -10.137259 -8.040216 79.348345 74.906712 25.927023 0.343111
-53.939499999999995 84.3006 14.361699999999999 -23.651948 85.147753 -12.637086 6.21 -18.299498 7.82766 -1.657506 3.306917 -1.873623 5.074707 22.928707 168.766709 1.715029 -8.439926 -174.712873 -0.001158 -0.0 0.000379 -0.001158 -0.0 0.000379 -14.14792 43.061731 15.995859 42.16102 44.870692 60.150156 -175.461985 36.874601 45.073304 -179.207259 -7.767565 143.260815 -5.433998 5.264864 1.077424 -13.993741 13.562821 15.082497 -43.648812 38.803583 34.059745 -10.967697 23.609769 4.86752 -0.059141 0.167585 0.032553 -163.728187 -6.173886 143.495525 0.004257 1.854383 0.582755 9.086259 12.714078 1.661994 -80.938087 -51.225149 -79.360099 3.422418 0.00327 -0.965376 9.651674 34.836106 -11.199631 -74.139797 20.811366 -33.501439 4.683626 2.588836 -100.366158 6.731743 -8.360262 3.474901 78.030411 38.689902 -42.412681 29.265032 -2.901028 -37.072869 46.208917 39.652716 -36.318271 170.217283 -19.906504 -111.812424 111.80441 56.306283 -102.278829 -10.51382 -21.505294 1.312057 0.014455 -1.322847 0.417868 156.470166 -32.21795 -175.636567 -7.92979 24.811572 -7.000396 148.317552 13.331974 143.970686 -0.00141 -0.001116 -0.0 3.539603 -19.145071 -145.892825 -16.606598 -14.182617 -122.422646 -164.329898 3.940001 108.714737 -0.00167 -0.00019 -0.0 4.289203 -15.93692 -164.722409 3.59061 -17.902895 88.018468 16.414459 1.001719 88.047148
